<?xml version="1.0" encoding="utf-8"?>
<!-- Generator: Adobe Illustrator 22.0.0, SVG Export Plug-In . SVG Version: 6.00 Build 0)  -->
<svg version="1.1" id="Слой_1" xmlns="http://www.w3.org/2000/svg" xmlns:xlink="http://www.w3.org/1999/xlink" x="0px" y="0px"
	 viewBox="0 0 54.482 26.561" style="enable-background:new 0 0 54.482 26.561;" xml:space="preserve">
<style type="text/css">
	.st0{fill:#CADDDD;}
	.st1{fill:#E4F3F0;}
	.st2{fill:#DEEEEB;}
	.st3{fill:#E1F0EE;}
	.st4{fill:#D9EAEB;}
	.st5{fill:#D5E5DF;}
	.st6{fill:#DEE6E0;}
	.st7{fill:#DBE4DE;}
	.st8{fill:#E7EAE4;}
	.st9{fill:#F5E7CD;}
	.st10{fill:#CDDAD2;}
	.st11{fill:#EED4B4;}
	.st12{fill:#F1CBB1;}
	.st13{fill:#E8EBE4;}
	.st14{fill:#D2D8D2;}
	.st15{fill:#E0E8E5;}
	.st16{fill:#E2EEEB;}
	.st17{fill:#EFDABC;}
	.st18{fill:#F1E7D1;}
	.st19{fill:#EDDFC5;}
	.st20{fill:#F4E4CE;}
	.st21{fill:#D7DEDA;}
	.st22{fill:#EEDDC6;}
	.st23{fill:#ECE0C5;}
	.st24{fill:#CCDFE2;stroke:#286072;stroke-width:0.3901;stroke-miterlimit:10;}
	.st25{fill:#276072;}
</style>
<g>
	<g>
		<path class="st0" d="M19.114,17.465c-0.988-0.204-1.971-0.437-2.964-0.606c-3.083-0.526-5.017-2.577-6.68-4.984
			C8.122,9.923,6.472,8.351,4.188,7.542C3.673,7.524,3.06,7.27,2.883,8.077c1.143,2.61,2.42,5.118,5.038,6.608
			c2.072,0.696,4.149,1.377,6.211,2.101c0.376,0.132,0.531,0.102,0.798,0.276c0.041,0.027,0.097,0.071,0.124,0.143
			c0.038,0.102-0.003,0.204-0.022,0.245c0.033,0.045,0.096,0.121,0.201,0.177c0.077,0.041,0.163,0.067,0.255,0.082
			c0.057,0.041,0.21,0.024,0.213,0.039c0.001,0.004-0.006,0.007-0.007,0.008c-0.041,0.024-0.278,0.308-0.389,0.691
			c-0.033,0.115-0.07,0.291-0.063,0.514c0.106,0.077,0.211,0.075,0.313-0.006c0.026-0.107,0.075-0.262,0.176-0.424
			c0.301-0.484,0.819-0.639,1.171-0.744c0.785-0.236,1.496-0.127,1.911-0.024C19.095,17.848,19.168,17.721,19.114,17.465z"/>
		<path class="st1" d="M22.446,19.267c-2.723,1.029-5.727,3.252-6.671,5.871c3.161,0.738,5.766-1.588,7.874-5.415
			C23.328,19.363,22.784,19.586,22.446,19.267z"/>
		<path class="st2" d="M44.499,11.635c-1.629,0.697-3.112,0.389-4.67-0.395c-2.013-1.014-3.115-0.881-5.64,0.277
			c1.645,0.028,2.708,0.853,3.883,1.414c1.07,0.51,2.155,0.672,3.302,0.309c0.099-0.031,0.349-0.178,0.309,0.131
			c-0.013,0.102-0.159,0.187-0.245,0.28c0.119,0.234,0.327,0.346,0.568,0.415c0.42,0.056,0.682-0.146,0.844-0.512
			c0.131-0.538,0.59-0.75,1-1.022C44.169,12.318,44.639,12.189,44.499,11.635z"/>
		<path class="st3" d="M29.792,15.152c0.259,0.013,0.646,0.062,1.074,0.24c0.305,0.127,0.404,0.225,0.73,0.377
			c0.263,0.122,0.618,0.253,1.071,0.33c0.435,0.056,0.781,0.046,1.001,0.03c0.781-0.056,2.27-0.346,2.723-0.615
			c0.026-0.015,0.105-0.06,0.192-0.044c0.157,0.03,0.259,0.233,0.267,0.454c0.684-0.084,1.26-0.334,1.556-1.011
			c-2.374-0.168-3.899-0.617-4.884-1.026c0,0-1.479-0.613-2.788-0.502c-0.622,0.053-1.136,0.267-1.136,0.267
			c-0.133,0.055-0.176,0.098-0.726,0.395c-0.878,0.474-1.039,0.559-1.031,0.66C27.852,14.845,28.183,15.025,29.792,15.152z"/>
		<path class="st4" d="M38.169,16.485c-1.731,1.308-3.875,2.02-5.358,3.682c-0.225,0.252-0.761,0.432-0.519,0.866
			c0.205,0.367,0.61,0.028,0.926,0.011c2.772-0.148,4.793-1.335,5.674-4.094C38.729,16.675,38.462,16.56,38.169,16.485z"/>
		<path class="st5" d="M22.446,19.267c0.244,0.565,0.738,0.476,1.204,0.457c1.907-1.085,3.962-1.444,6.131-1.243
			c0.308,0.101,0.496-0.078,0.527-0.33c0.042-0.337-0.344-0.262-0.511-0.409c-1.529-0.046-2.641-0.126-2.792-0.174
			c-0.18-0.058-0.235-0.108-0.235-0.108c-0.031-0.028-0.065-0.069-0.131-0.097c-0.042-0.018-0.079-0.022-0.102-0.026
			c-0.215-0.043-0.396,0.002-0.447,0.014c-0.185,0.042-0.576,0.08-1.247,0.117c-1.701-0.37-3.354-0.892-4.98-1.51
			c-0.025-0.007-0.369-0.094-0.612,0.134c-0.125,0.117-0.163,0.261-0.176,0.324c0.444,0.17,0.9,0.354,1.367,0.553
			c0.514,0.22,1.007,0.443,1.479,0.667c-1.126,0.159-1.971,0.059-2.806-0.172c-0.101,0.099-0.201,0.197-0.302,0.296
			c1.157,0.44,2.361,0.494,3.584,0.492c0.495-0.001,1.339-0.297,1.375,0.423C23.804,19.323,22.956,19.179,22.446,19.267z"/>
		<path class="st6" d="M44.499,11.635c-0.331,0.656-1.126,0.676-1.593,1.155c-0.081,0.083-0.345,0.175-0.35,0.352
			c-0.005,0.169,0.206,0.305,0.307,0.362c0.933-0.526,3.378-1.923,5.31-3.269c0.034-0.024,0.41-0.329,1.206-0.878
			c0.837-0.578,1.625-1.202,2.307-1.954c0.175-0.192,0.565-0.398,0.224-0.709c-0.233-0.212-0.424,0.042-0.622,0.215
			c-1.581,1.383-3.262,2.638-4.968,3.862C45.755,11.176,45.103,11.344,44.499,11.635z"/>
		<path class="st7" d="M38.169,16.485c0.141,0.311,0.379,0.471,0.724,0.464c0.197-0.235,0.303-0.533,0.436-0.812
			c0,0,0.245-0.355,0.604-0.697c0.782-0.743,1.946-1.251,2.216-1.366c-0.038-0.067-0.124-0.195-0.283-0.295
			c-0.179-0.113-0.353-0.128-0.43-0.129c-0.928,0.616-2.046,0.78-3.03,1.263c-0.518,0.337-1.037,0.674-1.556,1.011
			c-1.689,0.508-3.379,1.015-5.068,1.523c0.184,0.304,0.519,0.134,0.766,0.242c2.339-0.457,4.459-1.524,6.782-2.258
			C38.944,15.782,38.557,16.133,38.169,16.485z"/>
		<path class="st8" d="M13.016,19.496c-0.026-0.112-0.058-0.322,0.009-0.568c0.113-0.412,0.425-0.625,0.511-0.68
			c0.149-0.163,0.151-0.331,0.015-0.503c-0.346,0.05-0.862,0.162-1.422,0.447c-0.57,0.29-0.768,0.546-1.335,0.869
			c-0.342,0.195-0.861,0.438-1.579,0.591c0.385,0.51,0.813,0.416,1.257,0.088c0.656-0.424,1.218-1.006,2.097-1.212
			c-0.002,0.186-0.028,0.44-0.136,0.718c-0.04,0.103-0.085,0.195-0.131,0.274c0.052,0.051,0.129,0.122,0.231,0.198
			c0.087,0.065,0.111,0.073,0.129,0.076C12.824,19.821,12.988,19.545,13.016,19.496z"/>
		<path class="st9" d="M26.968,20.461c-0.42,0.043-0.735,0.274-0.784,0.55c-0.032,0.183,0.06,0.334,0.068,0.347
			c0.17,0.27,0.554,0.256,0.645,0.253c0.078-0.003,0.4-0.02,0.637-0.287c0.3-0.337,0.198-0.771,0.188-0.809
			C27.47,20.498,27.219,20.479,26.968,20.461z"/>
		<path class="st10" d="M32.549,17.689c-0.191-0.284-0.498-0.201-0.765-0.242c-0.092,0.014-0.902,0.134-0.994,0.147
			c-0.092,0.014-0.902,0.134-0.994,0.148c0.017,0.019,0.041,0.046,0.07,0.079c0.172,0.192,0.195,0.207,0.21,0.242
			c0.022,0.053,0.032,0.174-0.212,0.429c-0.053,0.021-0.127,0.059-0.201,0.124c-0.054,0.047-0.092,0.096-0.118,0.135
			c-0.171,0.155-0.174,0.311-0.002,0.468C30.648,18.91,31.372,17.854,32.549,17.689z"/>
		<path class="st11" d="M15.257,18.92c-0.389,0.142-0.6,0.552-0.498,0.918c0.101,0.365,0.476,0.56,0.781,0.541
			c0.048-0.003,0.35-0.028,0.471-0.25c0.075-0.139,0.042-0.286,0.01-0.421c-0.085-0.354-0.302-0.605-0.465-0.754
			C15.455,18.943,15.356,18.932,15.257,18.92z"/>
		<path class="st12" d="M13.016,19.496c-0.234,0.109-0.47,0.18-0.713,0.024c-0.148,0.495-0.581,1.062,0.082,1.439
			c0.464,0.264,0.988,0.21,1.192-0.45C13.608,20.051,13.343,19.757,13.016,19.496z"/>
		<path class="st12" d="M10.474,19.739c-0.419-0.029-0.839-0.058-1.258-0.088c-0.179,0.096-0.451,0.284-0.499,0.568
			c-0.092,0.551,0.712,1.147,1.277,1.079c0.285-0.034,0.479-0.202,0.479-0.202C11.012,20.656,10.502,20.193,10.474,19.739z"/>
		<path class="st13" d="M29.543,19.218c-0.006-0.065-0.008-0.145,0.001-0.234c0.014-0.135,0.049-0.246,0.082-0.326
			c-0.068,0.034-0.17,0.084-0.293,0.144c-0.673,0.325-1.025,0.457-1.23,0.557c-0.319,0.156-0.736,0.458-1.136,1.102
			c0.251,0.018,0.503,0.036,0.754,0.054C28.072,19.725,28.787,19.442,29.543,19.218z"/>
		<path class="st14" d="M13.551,17.745c-0.005,0.168-0.01,0.335-0.015,0.503c0.349-0.065,0.71-0.139,1.083-0.225
			c0.375-0.087,0.736-0.179,1.08-0.274c-0.157-0.025-0.361-0.082-0.561-0.218c-0.039-0.026-0.074-0.053-0.107-0.081
			C14.538,17.548,14.045,17.646,13.551,17.745z"/>
		<path class="st15" d="M19.907,16.008c-0.129-0.115-0.265-0.25-0.401-0.407c-0.289-0.336-0.485-0.669-0.619-0.947
			c-0.21-0.004-0.368,0.091-0.489,0.256c0.187,0.296,0.374,0.591,0.561,0.887c-1.14-0.682-2.663-0.838-3.123-2.358
			c-0.305-0.151-0.458,0.008-0.56,0.273c0.341,0.394,0.682,0.788,1.023,1.182c-0.113,0.179-0.41,0.297-0.194,0.584
			c1.095,0.045,1.988,0.732,3.028,0.951c0.101-0.073,0.218-0.15,0.352-0.224C19.637,16.122,19.779,16.058,19.907,16.008z"/>
		<path class="st16" d="M21.823,15.377c1.277,0.836,2.09,1.306,2.594,1.522c0.147,0.063,0.572,0.235,0.609,0.537
			c0.014,0.116-0.032,0.217-0.07,0.28c0.156,0.065,0.4,0.143,0.702,0.144c0.473,0.001,1.035-0.186,1.042-0.39
			c0.005-0.145-0.275-0.229-0.611-0.401c-0.385-0.197-0.889-0.531-1.406-1.134c-0.182,0.031-0.365,0.062-0.547,0.093
			c-0.281-0.094-0.591-0.215-0.92-0.372c-0.385-0.184-0.717-0.381-0.996-0.568c-0.066,0.034-0.141,0.078-0.22,0.136
			C21.93,15.276,21.871,15.329,21.823,15.377z"/>
		<path class="st17" d="M15.277,13.712c0.062-0.03,0.218-0.106,0.28-0.136c0.062-0.03,0.218-0.106,0.28-0.136
			c0.036-0.123,0.079-0.317,0.068-0.555c-0.01-0.227-0.024-0.513-0.238-0.748c-0.037-0.041-0.277-0.295-0.65-0.284
			c-0.231,0.007-0.456,0.129-0.665,0.358c-0.169,0.186-0.231,0.35-0.22,0.497c0.018,0.234,0.208,0.384,0.502,0.614
			C14.773,13.432,14.986,13.58,15.277,13.712z"/>
		<path class="st18" d="M21.887,15.455c0.183-0.111,0.365-0.221,0.548-0.332c0.058-0.556-0.172-1.052-0.566-1.241
			c-0.061-0.029-0.389-0.125-0.762-0.004c-0.271,0.087-0.47,0.394-0.41,0.718c0.096,0.513,0.466,0.77,0.959,0.87
			C21.733,15.461,21.81,15.458,21.887,15.455z"/>
		<path class="st19" d="M18.399,14.91c0.21,0.005,0.383-0.061,0.489-0.256c0.048-0.201,0.106-0.401,0.141-0.604
			c0.071-0.411-0.223-0.613-0.515-0.764c-0.31-0.161-0.586,0.031-0.768,0.255c-0.241,0.296-0.187,0.636,0.069,0.907
			C17.984,14.627,18.203,14.758,18.399,14.91z"/>
		<path class="st20" d="M24.563,15.956c0.05-0.009,0.092-0.016,0.12-0.021c0.122-0.34,0.125-0.623,0.114-0.789
			c-0.018-0.267-0.039-0.599-0.29-0.791c-0.152-0.116-0.325-0.133-0.375-0.136c-0.149-0.009-0.346,0.018-0.461,0.114
			c-0.416,0.349,0.118,1.688,0.465,1.694C24.154,16.029,24.163,16.025,24.563,15.956z"/>
		<path class="st21" d="M3.017,8.378C3.091,8.246,3.248,8.007,3.536,7.81c0.258-0.177,0.508-0.242,0.653-0.268
			C3.919,7.388,3.71,7.264,3.585,7.19C3.08,6.888,2.894,6.76,2.686,6.826C2.662,6.834,2.523,6.878,2.463,7.001
			C2.388,7.152,2.484,7.32,2.697,7.737C2.769,7.877,2.88,8.098,3.017,8.378z"/>
		<path class="st22" d="M16.106,15.479c0.125-0.191,0.114-0.32,0.099-0.382c-0.089-0.381-0.857-0.593-1.265-0.341
			c-0.04,0.025-0.156,0.098-0.217,0.241c-0.108,0.251,0.045,0.502,0.075,0.549c0.022,0.035,0.151,0.228,0.393,0.285
			c0.227,0.054,0.417-0.044,0.604-0.14C15.937,15.619,16.04,15.537,16.106,15.479z"/>
		<path class="st23" d="M29.685,20.573c0.137-0.004,0.477-0.081,0.429-0.544c-0.043-0.41-0.1-0.914-0.609-0.967
			c-0.459-0.048-0.616,0.341-0.638,0.762C28.844,20.251,28.924,20.588,29.685,20.573z"/>
	</g>
	<g>
		<path class="st24" d="M3.539,9.057c2.261,0.101,3.995,1.115,5.26,3.036c-0.922,0.006-1.752-0.205-2.543-0.574
			C5.101,10.981,4.195,10.16,3.539,9.057z"/>
		<path class="st24" d="M14.287,9.042c-0.766,1.648-3.607,3.287-5.254,3.037c0.506-0.825,1.156-1.496,1.959-2.018
			C11.988,9.413,13.082,9.081,14.287,9.042z"/>
		<path class="st24" d="M8.904,18.347c-0.968-1.586-1.115-4.098,0.004-6.034c0.47,0.834,0.718,1.717,0.775,2.653
			C9.767,16.365,9.358,17.639,8.904,18.347z"/>
		<path class="st24" d="M8.898,11.98c-1.04-2.003-1.037-4.004-0.001-6.057c0.419,0.762,0.667,1.532,0.755,2.351
			C9.794,9.586,9.552,10.823,8.898,11.98z"/>
		<path class="st24" d="M3.539,15.267c1.041-1.837,3.203-3.031,5.213-3.028C7.883,13.846,5.798,15.259,3.539,15.267z"/>
		<path class="st24" d="M14.264,15.256c-1.609,0.241-4.62-1.494-5.195-2.994C10.74,12.043,13.584,13.682,14.264,15.256z"/>
	</g>
	<g>
		<g>
			<g>
				<path class="st25" d="M20.718,16.272c0.062,0.543,0.145,0.962,0.25,1.258c0.105,0.296,0.317,0.444,0.638,0.444v0.703
					c-0.284,0-0.521-0.053-0.712-0.157c-0.191-0.105-0.348-0.259-0.472-0.463c-0.123-0.203-0.219-0.456-0.287-0.758
					c-0.068-0.302-0.12-0.644-0.157-1.026l-0.222-2.275c-0.049-0.481-0.148-0.851-0.296-1.11c-0.148-0.259-0.419-0.388-0.814-0.388
					h-0.555v6.122h-0.74V5.674h0.74v6.122h0.555c0.357,0,0.604-0.132,0.74-0.398c0.135-0.265,0.228-0.638,0.277-1.119l0.222-2.257
					c0.037-0.382,0.089-0.724,0.157-1.027c0.068-0.302,0.163-0.555,0.287-0.758c0.123-0.204,0.28-0.358,0.472-0.463
					c0.191-0.105,0.428-0.157,0.712-0.157v0.703c-0.321,0-0.533,0.148-0.638,0.444c-0.105,0.296-0.188,0.715-0.25,1.258
					l-0.222,2.257c-0.049,0.469-0.139,0.86-0.268,1.174c-0.13,0.314-0.336,0.546-0.62,0.694c0.321,0.136,0.552,0.36,0.694,0.675
					c0.142,0.314,0.237,0.706,0.287,1.174L20.718,16.272z"/>
				<path class="st25" d="M24.251,5.674c0.592,0,1.017,0.157,1.276,0.472c0.259,0.314,0.388,0.767,0.388,1.359v3.144
					c0,0.752-0.247,1.252-0.74,1.498c0.616,0.247,0.925,0.801,0.925,1.664v2.774c0,0.666-0.145,1.172-0.435,1.517
					c-0.29,0.345-0.762,0.518-1.415,0.518h-1.85V5.674H24.251z M23.141,6.377v5.419h1.11c0.616,0,0.925-0.382,0.925-1.147V7.505
					c0-0.752-0.308-1.128-0.925-1.128H23.141z M23.141,12.499v5.419h1.11c0.395,0,0.678-0.114,0.851-0.342
					c0.173-0.228,0.259-0.558,0.259-0.989v-2.774c0-0.431-0.086-0.758-0.259-0.98c-0.173-0.222-0.456-0.333-0.851-0.333H23.141z"/>
				<path class="st25" d="M28.209,18.621h-0.74V5.674h0.74V18.621z"/>
				<path class="st25" d="M29.115,5.674h4.069v0.721h-1.664v12.226h-0.74V6.396h-1.665V5.674z"/>
				<path class="st25" d="M37.66,16.272c0.061,0.543,0.145,0.962,0.25,1.258c0.105,0.296,0.317,0.444,0.638,0.444v0.703
					c-0.284,0-0.521-0.053-0.712-0.157c-0.191-0.105-0.349-0.259-0.472-0.463c-0.123-0.203-0.219-0.456-0.287-0.758
					c-0.068-0.302-0.12-0.644-0.157-1.026l-0.222-2.275c-0.049-0.481-0.148-0.851-0.296-1.11c-0.148-0.259-0.419-0.388-0.814-0.388
					h-0.555v6.122h-0.74V5.674h0.74v6.122h0.555c0.357,0,0.604-0.132,0.74-0.398c0.135-0.265,0.228-0.638,0.278-1.119l0.222-2.257
					c0.037-0.382,0.089-0.724,0.157-1.027c0.068-0.302,0.163-0.555,0.287-0.758c0.123-0.204,0.28-0.358,0.472-0.463
					c0.191-0.105,0.428-0.157,0.712-0.157v0.703c-0.321,0-0.534,0.148-0.638,0.444c-0.105,0.296-0.188,0.715-0.25,1.258
					l-0.222,2.257c-0.049,0.469-0.139,0.86-0.268,1.174s-0.336,0.546-0.62,0.694c0.32,0.136,0.552,0.36,0.693,0.675
					c0.142,0.314,0.237,0.706,0.287,1.174L37.66,16.272z"/>
				<path class="st25" d="M42.432,16.198h-2.386l-0.333,2.423h-0.758l1.924-12.966h0.74l1.924,12.966h-0.758L42.432,16.198z
					 M40.157,15.496h2.182l-0.536-3.755l-0.555-4.346l-0.555,4.346L40.157,15.496z"/>
			</g>
		</g>
		<g>
			<path d="M19.458,3.016l0.827-0.965h0.249l-0.523,0.645l0.832,1.467h-0.239l-0.716-1.312l-0.43,0.475v0.837h-0.196V3.326
				l-0.429-0.475l-0.717,1.312h-0.239l0.83-1.467l-0.52-0.645h0.248l0.827,0.965V2.051h0.196V3.016z"/>
			<path d="M21.034,2.051h0.191v1.789l1.351-1.789h0.209v2.112h-0.194V2.358l-1.366,1.802v0.003h-0.191V2.051z"/>
			<path d="M24.261,2.246v1.917h-0.192V2.246h-0.872V2.051h1.936v0.195H24.261z"/>
			<path d="M26.587,2.246v1.917h-0.192V2.246h-0.872V2.051h1.936v0.195H26.587z"/>
			<path d="M29.362,2.856v0.182h-1.319c-0.006,0.032-0.009,0.066-0.009,0.102c0,0.248,0.095,0.459,0.285,0.633
				s0.422,0.261,0.69,0.261c0.257,0,0.476-0.079,0.661-0.236h0.285c-0.026,0.03-0.063,0.066-0.109,0.107
				c-0.229,0.212-0.508,0.319-0.837,0.319c-0.323,0-0.601-0.107-0.833-0.319c-0.231-0.212-0.347-0.467-0.347-0.765
				c0-0.302,0.116-0.559,0.347-0.77c0.232-0.212,0.51-0.318,0.833-0.318c0.33,0,0.608,0.106,0.837,0.317
				c0.122,0.113,0.208,0.239,0.255,0.377h-0.217c-0.044-0.09-0.106-0.17-0.185-0.243c-0.191-0.175-0.42-0.264-0.691-0.264
				c-0.268,0-0.499,0.088-0.69,0.264c-0.115,0.107-0.195,0.224-0.241,0.353H29.362z"/>
			<path d="M32.304,3.953h0.172v1.017h-0.194V4.164H30.6v0.806H30.41V3.953h0.172c0.003-0.004,0.007-0.007,0.01-0.009
				c0.305-0.304,0.457-0.754,0.457-1.351c0-0.122-0.006-0.238-0.019-0.347c-0.009-0.067-0.019-0.132-0.033-0.195h1.306V3.953z
				 M30.834,3.97h1.279V2.246h-0.885c0.011,0.109,0.017,0.225,0.017,0.347C31.246,3.174,31.108,3.633,30.834,3.97z"/>
			<path d="M35.199,4.164h-0.194v-0.43c-0.037,0.05-0.079,0.098-0.123,0.143c-0.231,0.231-0.509,0.347-0.836,0.347
				c-0.325,0-0.604-0.116-0.835-0.347s-0.346-0.509-0.346-0.835c0-0.327,0.115-0.605,0.346-0.836
				c0.231-0.231,0.509-0.347,0.835-0.347c0.327,0,0.605,0.116,0.836,0.347c0.044,0.046,0.086,0.093,0.123,0.143V2.051h0.194V4.164z
				 M35.005,3.234V2.852c-0.036-0.189-0.126-0.356-0.27-0.499c-0.191-0.191-0.42-0.287-0.69-0.287s-0.5,0.096-0.69,0.287
				c-0.192,0.191-0.287,0.42-0.287,0.69s0.095,0.5,0.287,0.69c0.189,0.191,0.42,0.285,0.69,0.285s0.499-0.096,0.69-0.287
				C34.879,3.587,34.97,3.422,35.005,3.234z"/>
			<path d="M35.741,2.051h0.191v1.789l1.351-1.789h0.209v2.112h-0.194V2.358l-1.366,1.802v0.003h-0.191V2.051z M36.27,1.286
				c0.011,0.076,0.044,0.141,0.099,0.195c0.069,0.069,0.152,0.103,0.249,0.103c0.096,0,0.179-0.034,0.248-0.103
				c0.054-0.054,0.087-0.119,0.098-0.195h0.158c-0.011,0.119-0.06,0.221-0.146,0.307c-0.098,0.099-0.217,0.149-0.357,0.149
				c-0.142,0-0.262-0.05-0.36-0.149c-0.093-0.095-0.142-0.196-0.148-0.307H36.27z"/>
			<path d="M39.698,4.164h-0.192V3.118h-1.411v1.045h-0.192V2.051h0.192v0.87h1.411v-0.87h0.192V4.164z"/>
			<path d="M42.493,4.164H42.3v-0.43c-0.037,0.05-0.079,0.098-0.123,0.143c-0.231,0.231-0.509,0.347-0.836,0.347
				c-0.325,0-0.604-0.116-0.835-0.347c-0.231-0.231-0.346-0.509-0.346-0.835c0-0.327,0.115-0.605,0.346-0.836
				c0.231-0.231,0.509-0.347,0.835-0.347c0.327,0,0.605,0.116,0.836,0.347C42.221,2.252,42.262,2.3,42.3,2.35V2.051h0.194V4.164z
				 M42.3,3.234V2.852c-0.036-0.189-0.126-0.356-0.27-0.499c-0.191-0.191-0.42-0.287-0.69-0.287s-0.5,0.096-0.69,0.287
				c-0.192,0.191-0.287,0.42-0.287,0.69s0.095,0.5,0.287,0.69c0.189,0.191,0.42,0.285,0.69,0.285s0.499-0.096,0.69-0.287
				C42.173,3.587,42.264,3.422,42.3,3.234z"/>
		</g>
	</g>
	<g>
		<path d="M22.546,21.685l0.142,0.051c-0.026,0.036-0.055,0.07-0.088,0.103c-0.16,0.16-0.353,0.24-0.58,0.24
			c-0.225,0-0.418-0.08-0.578-0.24c-0.16-0.16-0.24-0.353-0.24-0.58c0-0.226,0.08-0.418,0.24-0.578c0.16-0.16,0.353-0.24,0.578-0.24
			c0.226,0,0.42,0.08,0.58,0.24c0.033,0.033,0.062,0.066,0.088,0.101l-0.142,0.052c-0.015-0.018-0.031-0.036-0.048-0.054
			c-0.132-0.131-0.292-0.197-0.478-0.197c-0.186,0-0.345,0.066-0.477,0.198c-0.132,0.132-0.198,0.291-0.198,0.478
			c0,0.187,0.066,0.346,0.198,0.478c0.132,0.132,0.291,0.198,0.477,0.198c0.187,0,0.346-0.066,0.478-0.198
			C22.515,21.721,22.531,21.703,22.546,21.685z"/>
		<path d="M24.624,22.037H24.49v-0.298c-0.026,0.035-0.054,0.068-0.085,0.1c-0.16,0.16-0.353,0.24-0.58,0.24
			c-0.225,0-0.418-0.08-0.578-0.24c-0.16-0.16-0.24-0.353-0.24-0.578c0-0.226,0.08-0.42,0.24-0.58c0.16-0.16,0.353-0.24,0.578-0.24
			c0.226,0,0.42,0.08,0.58,0.24c0.031,0.032,0.059,0.065,0.085,0.1v-0.207h0.134V22.037z M24.49,21.393v-0.265
			c-0.025-0.131-0.087-0.246-0.186-0.346c-0.132-0.132-0.292-0.198-0.478-0.198s-0.346,0.066-0.478,0.198
			c-0.132,0.132-0.198,0.292-0.198,0.478c0,0.187,0.066,0.346,0.198,0.478c0.132,0.132,0.292,0.197,0.478,0.197
			s0.346-0.066,0.478-0.198C24.403,21.638,24.465,21.524,24.49,21.393z"/>
		<path d="M26.356,20.574v1.463h-0.133v-1.328h-0.977V21.7c0,0.209-0.104,0.321-0.313,0.338v-0.133
			c0.12-0.014,0.18-0.081,0.18-0.203v-1.129H26.356z"/>
		<path d="M27.46,20.441c0.226,0,0.419,0.08,0.579,0.24c0.159,0.16,0.239,0.353,0.239,0.58c0,0.225-0.08,0.418-0.239,0.578
			c-0.16,0.16-0.352,0.24-0.579,0.24c-0.226,0-0.418-0.08-0.578-0.24c-0.16-0.16-0.24-0.353-0.24-0.578c0-0.226,0.08-0.42,0.24-0.58
			C27.041,20.521,27.234,20.441,27.46,20.441z M26.981,20.782c-0.132,0.132-0.198,0.292-0.198,0.478
			c0,0.187,0.066,0.346,0.198,0.478c0.132,0.132,0.292,0.197,0.478,0.197c0.187,0,0.346-0.066,0.478-0.197
			c0.132-0.132,0.198-0.291,0.198-0.478c0-0.187-0.066-0.346-0.198-0.478c-0.132-0.132-0.292-0.198-0.478-0.198
			C27.273,20.584,27.114,20.65,26.981,20.782z"/>
		<path d="M29.79,22.037h-0.133v-0.724H28.68v0.724h-0.133v-1.463h0.133v0.604h0.977v-0.604h0.133V22.037z"/>
		<path d="M32.03,20.574l-0.361,0.447l0.574,1.016h-0.164l-0.498-0.909l-0.298,0.331v0.578h-0.136v-1.463h0.136v0.671l0.574-0.671
			H32.03z"/>
		<path d="M32.447,20.574h0.134v0.206c0.025-0.034,0.053-0.066,0.085-0.098c0.16-0.159,0.353-0.238,0.578-0.238
			c0.226,0,0.419,0.08,0.579,0.239c0.159,0.16,0.239,0.353,0.239,0.579c0,0.225-0.08,0.418-0.239,0.578
			c-0.16,0.16-0.352,0.24-0.579,0.24c-0.226,0-0.418-0.08-0.578-0.24c-0.032-0.032-0.06-0.065-0.085-0.099v0.856h-0.134V20.574z
			 M32.581,21.121v0.28c0.026,0.128,0.088,0.241,0.185,0.338c0.132,0.132,0.292,0.198,0.478,0.198c0.187,0,0.346-0.066,0.478-0.198
			c0.132-0.132,0.198-0.292,0.198-0.478c0-0.187-0.066-0.346-0.198-0.478c-0.132-0.132-0.292-0.198-0.478-0.198
			c-0.187,0-0.346,0.066-0.478,0.198C32.669,20.88,32.607,20.993,32.581,21.121z"/>
		<path d="M36.014,22.037H35.88v-0.298c-0.026,0.035-0.054,0.068-0.085,0.1c-0.16,0.16-0.353,0.24-0.58,0.24
			c-0.225,0-0.418-0.08-0.578-0.24c-0.16-0.16-0.24-0.353-0.24-0.578c0-0.226,0.08-0.42,0.24-0.58c0.16-0.16,0.353-0.24,0.578-0.24
			c0.226,0,0.42,0.08,0.58,0.24c0.031,0.032,0.059,0.065,0.085,0.1v-0.207h0.134V22.037z M35.88,21.393v-0.265
			c-0.025-0.131-0.087-0.246-0.186-0.346c-0.132-0.132-0.292-0.198-0.478-0.198c-0.187,0-0.346,0.066-0.478,0.198
			c-0.132,0.132-0.198,0.292-0.198,0.478c0,0.187,0.066,0.346,0.198,0.478c0.132,0.132,0.292,0.197,0.478,0.197
			c0.187,0,0.346-0.066,0.478-0.198C35.793,21.638,35.855,21.524,35.88,21.393z"/>
		<path d="M37.716,21.685l0.142,0.051c-0.026,0.036-0.055,0.07-0.088,0.103c-0.16,0.16-0.353,0.24-0.58,0.24
			c-0.226,0-0.418-0.08-0.578-0.24c-0.16-0.16-0.24-0.353-0.24-0.58c0-0.226,0.08-0.418,0.24-0.578c0.16-0.16,0.353-0.24,0.578-0.24
			c0.226,0,0.42,0.08,0.58,0.24c0.033,0.033,0.062,0.066,0.088,0.101l-0.142,0.052c-0.015-0.018-0.031-0.036-0.048-0.054
			c-0.132-0.131-0.292-0.197-0.478-0.197c-0.186,0-0.345,0.066-0.477,0.198c-0.132,0.132-0.198,0.291-0.198,0.478
			c0,0.187,0.066,0.346,0.198,0.478c0.132,0.132,0.291,0.198,0.477,0.198c0.187,0,0.346-0.066,0.478-0.198
			C37.685,21.721,37.701,21.703,37.716,21.685z"/>
		<path d="M38.144,20.574h0.133v1.24l0.936-1.24h0.144v1.463h-0.134v-1.25l-0.946,1.249v0.001h-0.133V20.574z"/>
	</g>
</g>
</svg>
